# xmcd
# 
# Track frame offsets:
#     150
#     23599
#     43716
#     67433
#     87974
#     105233
# 
# Disc length: 1692
# 
# Revision: 0
# Processed by: cddbd v1.5.2PL0 Copyright (c) Steve Scherf et al.
# Submitted via: fre:ac v1.0.31
# 
DISCID=46069a06
DTITLE=Blut Aus Nord - What Once Was... Liber III
DYEAR=2013
DGENRE=Black Metal
TTITLE0=I
TTITLE1=II
TTITLE2=III
TTITLE3=IV
TTITLE4=V
TTITLE5=VI
EXTD=
EXTT0=
EXTT1=
EXTT2=
EXTT3=
EXTT4=
EXTT5=
PLAYORDER=
